<?xml version="1.0" standalone="no"?>
<!DOCTYPE svg PUBLIC "-//W3C//DTD SVG 20010904//EN"
 "http://www.w3.org/TR/2001/REC-SVG-20010904/DTD/svg10.dtd">
<svg version="1.0" xmlns="http://www.w3.org/2000/svg"
 width="1000.000000pt" height="1000.000000pt" viewBox="0 0 1000.000000 1000.000000"
 preserveAspectRatio="xMidYMid meet">
<metadata>
Created by potrace 1.11, written by Peter Selinger 2001-2013
</metadata>
<g transform="translate(0.000000,1000.000000) scale(0.100000,-0.100000)"
fill="#000000" stroke="none">
<path d="M4695 9779 c-1038 -69 -2032 -487 -2831 -1189 -326 -288 -611 -613
-849 -970 -223 -336 -369 -618 -505 -982 -492 -1312 -371 -2784 330 -4006 375
-655 931 -1244 1570 -1664 190 -126 307 -192 524 -299 531 -263 1077 -414
1696 -470 194 -18 619 -15 825 5 1365 135 2586 834 3425 1961 514 690 830
1512 916 2380 20 206 23 631 5 825 -74 819 -327 1548 -768 2219 -480 730
-1154 1329 -1927 1710 -747 369 -1583 535 -2411 480z m800 -373 c1004 -123
1919 -570 2640 -1291 1090 -1089 1546 -2606 1220 -4060 -14 -61 -31 -130 -38
-153 l-12 -42 -1077 861 -1078 860 -77 -62 c-43 -34 -84 -67 -90 -72 -10 -7
-12 22 -10 129 l2 139 -43 86 c-42 86 -42 88 -42 198 0 109 1 112 24 121 32
12 33 13 41 111 l7 87 -36 35 c-34 35 -54 91 -42 122 3 8 28 28 55 45 62 39
71 63 71 199 0 141 -15 195 -106 381 -84 172 -141 254 -192 278 -32 15 -37 15
-100 -7 -115 -41 -183 -81 -199 -119 -8 -18 -12 -41 -9 -50 2 -9 7 -27 11 -39
6 -21 3 -23 -33 -23 -33 0 -46 7 -80 40 -33 33 -47 40 -78 40 -51 0 -102 -32
-120 -76 -19 -45 -4 -105 36 -145 l28 -29 -33 -75 c-26 -60 -42 -83 -82 -115
-28 -22 -58 -51 -67 -65 -10 -14 -40 -41 -69 -59 -74 -48 -91 -69 -82 -103 4
-15 7 -53 7 -83 -2 -70 -51 -499 -60 -523 -6 -14 -100 59 -525 409 l-517 427
0 254 0 253 302 0 303 0 -98 97 -97 98 97 97 98 98 -328 0 -327 0 0 -447 0
-448 -800 -675 c-440 -371 -799 -677 -799 -680 0 -4 1118 -928 1207 -997 l28
-22 234 189 c129 105 237 190 240 190 10 0 3485 -2729 3495 -2745 8 -12 -17
-42 -122 -147 l-132 -132 -38 30 c-636 506 -3198 2504 -3206 2501 -7 -3 -115
-89 -242 -191 -126 -102 -233 -185 -237 -184 -3 2 -441 362 -973 801 -531 438
-970 798 -975 800 -5 1 -390 -308 -855 -688 -466 -379 -850 -691 -854 -693
-16 -6 -63 304 -82 543 -15 186 -7 599 15 780 160 1314 879 2476 1996 3222
596 399 1312 659 1990 722 63 6 133 13 155 15 99 10 637 -3 760 -18z m790
-2661 c11 -27 15 -56 11 -76 -6 -33 12 -78 47 -117 l21 -22 -40 -43 c-159
-169 -198 -213 -224 -254 -33 -52 -37 -81 -16 -121 7 -15 19 -54 26 -87 6 -33
31 -101 56 -152 24 -51 44 -105 44 -120 0 -36 -23 -69 -62 -89 -35 -18 -18
-29 -225 144 -82 67 -113 99 -113 115 0 12 22 143 49 290 42 230 52 271 70
284 12 8 30 32 42 54 16 33 32 45 92 73 74 34 98 53 155 125 18 22 37 41 42
41 4 0 16 -20 25 -45z m300 -499 c24 -32 76 -207 99 -340 4 -21 18 -49 31 -62
30 -30 105 -284 104 -352 0 -26 -8 -69 -18 -97 -16 -45 -23 -53 -77 -80 -55
-28 -59 -32 -64 -71 l-5 -42 -218 180 -218 180 71 55 c80 62 84 76 45 151 -20
38 -27 73 -36 174 -6 70 -8 139 -5 153 5 18 40 48 124 104 64 44 122 80 129
80 7 1 24 -15 38 -33z"/>
</g>
</svg>
